<?xml version="1.0" encoding="UTF-8" standalone="no"?>
<!-- Generator: Adobe Illustrator 12.0.0, SVG Export Plug-In . SVG Version: 6.00 Build 51448)  -->
<svg
   xmlns:dc="http://purl.org/dc/elements/1.1/"
   xmlns:cc="http://web.resource.org/cc/"
   xmlns:rdf="http://www.w3.org/1999/02/22-rdf-syntax-ns#"
   xmlns:svg="http://www.w3.org/2000/svg"
   xmlns="http://www.w3.org/2000/svg"
   xmlns:xlink="http://www.w3.org/1999/xlink"
   xmlns:sodipodi="http://sodipodi.sourceforge.net/DTD/sodipodi-0.dtd"
   xmlns:inkscape="http://www.inkscape.org/namespaces/inkscape"
   height="133.554"
   id="Layer_1"
   inkscape:version="0.45.1"
   sodipodi:docbase="O:\resources\icons"
   sodipodi:docname="flatten.svg"
   sodipodi:version="0.32"
   space="preserve"
   style="overflow:visible;enable-background:new 0 0 136.301 133.554;"
   version="1.1"
   viewBox="0 0 136.301 133.554"
   width="136.301"
   inkscape:output_extension="org.inkscape.output.svg.inkscape">
  <metadata
     id="metadata3">
    <rdf:RDF>
      <cc:Work
         rdf:about="">
        <dc:title>Tasto 3</dc:title>
        <dc:description />
        <dc:subject>
          <rdf:Bag>
            <rdf:li>unsorted</rdf:li>
          </rdf:Bag>
        </dc:subject>
        <dc:publisher>
          <cc:Agent
             rdf:about="http://www.openclipart.org/">
            <dc:title>Open Clip Art Library</dc:title>
          </cc:Agent>
        </dc:publisher>
        <dc:creator>
          <cc:Agent>
            <dc:title>Architetto Francesco Rollandin</dc:title>
          </cc:Agent>
        </dc:creator>
        <dc:rights>
          <cc:Agent>
            <dc:title>Architetto Francesco Rollandin</dc:title>
          </cc:Agent>
        </dc:rights>
        <dc:date />
        <dc:format>image/svg+xml</dc:format>
        <dc:type
           rdf:resource="http://purl.org/dc/dcmitype/StillImage" />
        <cc:license
           rdf:resource="http://web.resource.org/cc/PublicDomain" />
        <dc:language>en</dc:language>
      </cc:Work>
      <cc:License
         rdf:about="http://web.resource.org/cc/PublicDomain">
        <cc:permits
           rdf:resource="http://web.resource.org/cc/Reproduction" />
        <cc:permits
           rdf:resource="http://web.resource.org/cc/Distribution" />
        <cc:permits
           rdf:resource="http://web.resource.org/cc/DerivativeWorks" />
      </cc:License>
    </rdf:RDF>
  </metadata>
  <defs
     id="defs19">
    <radialGradient
       inkscape:collect="always"
       xlink:href="#XMLID_2_"
       id="radialGradient2194"
       gradientUnits="userSpaceOnUse"
       cx="46.064"
       cy="16.0752"
       r="107.2917" />
    <radialGradient
       inkscape:collect="always"
       xlink:href="#XMLID_2_"
       id="radialGradient2196"
       gradientUnits="userSpaceOnUse"
       cx="46.064"
       cy="16.0752"
       r="107.2917" />
  </defs>
  <sodipodi:namedview
     bordercolor="#666666"
     borderopacity="1.0"
     id="base"
     inkscape:current-layer="Layer_1"
     inkscape:cx="68.150497"
     inkscape:cy="56.322482"
     inkscape:pageopacity="0.0"
     inkscape:pageshadow="2"
     inkscape:window-height="795"
     inkscape:window-width="1445"
     inkscape:window-x="222"
     inkscape:window-y="454"
     inkscape:zoom="2.6955389"
     pagecolor="#ffffff" />
  <g
     id="g3"
     transform="translate(-121.31156,-28.194734)"
     inkscape:export-filename="O:\resources\icons\flatten.png"
     inkscape:export-xdpi="90"
     inkscape:export-ydpi="90">
    <radialGradient
       cx="46.063999"
       cy="16.075199"
       gradientUnits="userSpaceOnUse"
       id="XMLID_2_"
       r="107.2917">
      <stop
         id="stop6"
         offset="0"
         style="stop-color:#D1F593" />
      <stop
         id="stop8"
         offset="1"
         style="stop-color:#81CE09" />
    </radialGradient>
    <path
       d="M 7.729,57.055 C 16.413,57.055 25.099,57.055 33.784,57.055 C 34.66,57.055 34.198,35.644 34.198,33.647 C 34.2,26.329 31.603,12.245 36.813,6.065 C 42.255,-0.391 55.947,2.112 63.334,2.112 C 72.681,2.112 82.03,2.112 91.379,2.112 C 103.932,2.112 102.733,15.056 102.733,23.709 C 102.733,34.301 102.733,44.894 102.733,55.485 C 102.733,58.211 105.101,57.055 107.584,57.055 C 113.251,57.055 118.915,57.055 124.58,57.055 C 134.001,57.055 138.399,66.772 131.539,73.654 C 125.618,79.595 119.695,85.537 113.773,91.478 C 101.166,104.125 89.128,118.499 75.419,129.954 C 67.314,138.037 59.596,129.846 53.886,124.141 C 46.109,116.37 38.329,108.598 30.552,100.826 C 22.907,93.19 15.264,85.552 7.62,77.916 C 2.664,72.962 -3.668,66.688 2.648,59.41 C 3.939,57.923 5.752,57.055 7.729,57.055"
       id="path10"
       style="fill:url(#radialGradient2196)" />
    <path
       d="M 120.557,75.788 C 115.55,80.81 68.67,128.07 68.439,127.84 C 58.682,118.128 48.924,108.416 39.167,98.704 C 33.354,92.919 27.54,87.134 21.728,81.349 C 18.152,77.788 11.252,72.686 13.823,66.86 C 9.604,66.86 5.386,66.86 1.167,66.86 C 1.859,72.253 7.938,76.514 11.522,80.083 C 18.961,87.49 26.4,94.898 33.839,102.306 C 40.934,109.373 48.031,116.439 55.129,123.504 C 58.985,127.347 62.882,132.539 68.672,132.504 C 74.23,132.57 77.838,127.85 81.523,124.154 C 88.433,117.222 95.342,110.292 102.252,103.357 C 109.729,95.857 117.206,88.357 124.685,80.854 C 128.388,77.136 135.028,72.471 135.757,66.86 C 131.51,66.86 127.266,66.86 123.019,66.86 C 124.288,69.901 122.734,73.594 120.557,75.788"
       id="path12"
       style="fill:#67ba06" />
    <path
       d="M 127.29,56.413 C 119.58,56.413 111.869,56.413 104.16,56.413 C 103.162,56.413 103.695,39.194 103.695,37.475 C 103.695,29.265 103.695,21.054 103.695,12.841 C 103.695,1.952 93.698,1.47 85.681,1.47 C 75.531,1.47 65.379,1.47 55.228,1.47 C 47.475,1.47 36.932,0.342 35.075,10.582 C 33.784,17.691 34.898,25.827 34.898,33.003 C 34.899,40.807 34.901,48.609 34.901,56.413 C 26.515,56.413 18.13,56.413 9.745,56.413 C 6.644,56.413 3.784,57.725 2.258,60.512 C 1.6,61.715 -0.239,66.86 1.972,66.86 C 4.531,66.86 7.087,66.86 9.644,66.86 C 13.469,66.86 12.748,66.8 15.489,64.791 C 18.655,62.471 24.733,63.421 28.417,63.421 C 33.462,63.421 38.509,63.421 43.553,63.421 C 43.816,63.421 43.681,40.252 43.681,38.471 C 43.681,31.657 41.183,17.062 46.204,11.363 C 51.132,5.771 67.969,8.86 74.378,8.86 C 83.454,8.86 95.137,6.887 95.137,19.759 C 95.137,29.443 95.137,39.13 95.137,48.816 C 95.137,53.661 95.137,58.508 95.137,63.354 C 95.137,63.489 111.069,63.42 112.477,63.42 C 114.925,63.42 117.784,63.117 120.088,64.058 C 123.905,65.621 122.65,66.859 127.223,66.859 C 128.559,66.859 134.81,67.771 135.756,66.859 C 136.461,61.397 133.063,56.413 127.29,56.413"
       id="path14"
       style="fill:#b2ed21" />
    <path
       d="M 46.274,0.573 C 32.467,0.573 34.263,15.876 34.263,25.179 C 34.263,35.227 34.261,45.272 34.261,55.321 C 34.261,55.942 11.3,55.193 8.691,55.515 C 0.621,55.515 -2.382,67.589 2.811,72.777 C 4.315,74.28 5.818,75.783 7.323,77.286 C 22.723,92.673 38.124,108.059 53.525,123.446 C 59.351,129.266 66.294,137.581 75.355,131.333 C 80.465,127.806 84.721,122.217 89.065,117.86 C 103.255,103.623 117.447,89.386 131.638,75.148 C 137.846,68.92 139.224,55.515 127.149,55.515 C 122.33,55.515 117.511,55.515 112.692,55.515 C 110.179,55.515 104.592,56.994 104.592,53.958 C 104.592,43.901 104.592,33.842 104.592,23.783 C 104.592,14.681 105.866,0.573 92.582,0.573 C 77.373,-0.716 61.549,0.573 46.274,0.573 M 61.3,128.675 C 48.463,115.851 35.628,103.026 22.791,90.201 C 16.844,84.26 10.897,78.318 4.951,72.377 C 1.821,69.248 1.167,64.513 3.43,60.571 C 5.878,56.306 11.202,57.311 15.355,57.311 C 20.83,57.311 26.305,57.311 31.782,57.311 C 34.968,57.311 36.057,58.321 36.057,55.138 C 36.057,44.385 36.058,33.631 36.058,22.878 C 36.058,14.557 34.766,2.369 46.815,2.369 C 56.543,2.369 66.27,2.369 75.998,2.369 C 83.123,2.369 96.339,-0.078 101.044,6.874 C 105.408,13.328 102.796,27.003 102.796,34.2 C 102.796,35.806 102.673,57.312 102.91,57.312 C 111.254,57.312 120.986,55.795 129.176,57.498 C 141.403,60.042 132.227,72.013 127.614,76.639 C 120.003,84.277 112.391,91.913 104.777,99.551 C 97.259,107.093 89.741,114.636 82.223,122.179 C 76.797,127.625 69.27,136.622 61.3,128.675"
       id="path16"
       style="fill:#739b07" />
  </g>
  <g
     id="g2178"
     transform="translate(-34.343929,37.884332)"
     inkscape:export-filename="O:\resources\icons\flatten.png"
     inkscape:export-xdpi="90"
     inkscape:export-ydpi="90">
    <radialGradient
       r="95.493599"
       id="radialGradient2180"
       gradientUnits="userSpaceOnUse"
       cy="34.538601"
       cx="40.950199">
      <stop
         style="stop-color:#D1F593"
         offset="0"
         id="stop2182" />
      <stop
         style="stop-color:#81CE09"
         offset="1"
         id="stop2184" />
    </radialGradient>
    <path
       style="fill:url(#radialGradient2194)"
       id="path2186"
       d="M 127.832,76.994 C 119.141,76.994 110.449,76.994 101.759,76.994 C 100.883,76.994 101.345,98.36 101.345,100.355 C 101.343,107.661 103.935,121.716 98.736,127.882 C 93.304,134.324 79.639,131.826 72.267,131.826 C 62.939,131.826 53.608,131.826 44.278,131.826 C 31.75,131.826 32.945,118.908 32.945,110.271 C 32.945,99.702 32.945,89.13 32.945,78.559 C 32.945,75.843 30.596,76.993 28.12,76.993 C 22.483,76.993 16.846,76.993 11.21,76.993 C 1.808,76.993 -2.571,67.29 4.269,60.43 C 10.18,54.5 16.09,48.571 22.002,42.641 C 34.582,30.019 46.595,15.675 60.276,4.243 C 68.365,-3.824 76.068,4.351 81.766,10.045 C 89.53,17.8 97.292,25.557 105.054,33.312 C 112.683,40.934 120.312,48.554 127.94,56.176 C 132.886,61.117 139.206,67.379 132.9,74.646 C 131.614,76.128 129.806,76.994 127.832,76.994" />
    <path
       style="fill:#b2ed21"
       id="path2188"
       d="M 16.189,57.658 C 21.186,52.646 67.972,5.48 68.203,5.709 C 77.941,15.402 87.679,25.094 97.417,34.787 C 103.219,40.561 109.021,46.335 114.821,52.109 C 118.391,55.662 125.276,60.756 122.711,66.571 C 126.922,66.571 131.131,66.571 135.342,66.571 C 134.653,61.187 128.584,56.934 125.007,53.374 C 117.583,45.981 110.158,38.589 102.735,31.196 C 95.654,24.143 88.571,17.09 81.488,10.04 C 77.655,6.222 73.73,0.987 67.97,1.057 C 62.422,0.991 58.822,5.7 55.145,9.39 C 48.249,16.308 41.353,23.225 34.457,30.144 C 26.996,37.629 19.533,45.117 12.07,52.602 C 8.373,56.313 1.747,60.97 1.019,66.57 C 5.258,66.57 9.495,66.57 13.734,66.57 C 12.465,63.535 14.016,59.846 16.189,57.658" />
    <path
       style="fill:#67ba06"
       id="path2190"
       d="M 9.47,76.994 C 17.141,76.994 24.812,76.994 32.483,76.994 C 33.475,76.994 32.945,94.181 32.945,95.892 C 32.945,104.088 32.945,112.285 32.945,120.479 C 32.945,131.344 42.923,131.827 50.923,131.827 C 61.055,131.827 71.185,131.827 81.315,131.827 C 89.052,131.827 99.573,132.953 101.428,122.733 C 102.716,115.638 101.605,107.52 101.603,100.359 C 101.603,92.571 101.603,84.782 101.601,76.994 C 109.994,76.994 118.385,76.994 126.778,76.994 C 129.874,76.994 132.728,75.685 134.251,72.906 C 134.908,71.705 136.744,66.57 134.537,66.57 C 131.983,66.57 129.432,66.57 126.88,66.57 C 123.063,66.57 123.782,66.629 121.046,68.633 C 117.98,70.88 112.237,70 108.653,70 C 103.534,70 98.415,70 93.294,70 C 92.327,70 92.839,91.364 92.839,93.413 C 92.839,100.767 95.215,113.904 91.24,120.675 C 87.196,127.565 70.083,124.451 63.628,124.451 C 54.539,124.451 41.486,126.912 41.486,113.771 C 41.486,104.516 41.486,95.261 41.486,86.006 C 41.486,80.759 41.486,75.51 41.486,70.261 C 41.486,69.708 26.923,69.999 25.435,69.999 C 23.132,69.999 20.615,70.233 18.326,69.832 C 16.371,69.489 14.53,68.469 13.734,66.568 C 12.708,66.16 10.615,66.568 9.537,66.568 C 8.204,66.568 1.964,65.658 1.019,66.568 C 0.315,72.021 3.708,76.994 9.47,76.994" />
    <path
       style="fill:#739b07"
       id="path2192"
       d="M 59.643,3.605 C 46.884,16.406 34.125,29.207 21.366,42.008 C 15.456,47.938 9.544,53.869 3.633,59.8 C 0.315,63.129 -1.017,67.85 0.85,72.37 C 3.354,78.419 9.569,77.891 14.954,77.891 C 20.331,77.891 25.707,77.891 31.086,77.891 C 33.051,77.891 32.048,84.535 32.048,86.229 C 32.048,97.17 32.048,108.113 32.048,119.053 C 32.048,130.123 40.164,132.724 49.419,132.724 C 60.531,132.724 71.641,132.724 82.751,132.724 C 91.257,132.724 102.238,132.288 102.238,120.665 C 102.238,111.483 102.239,102.302 102.239,93.12 C 102.239,88.79 102.239,84.461 102.239,80.131 C 102.239,76.526 104.899,77.891 108.235,77.891 C 117.485,77.891 136.207,81.818 136.207,67.617 C 136.207,61.219 129.888,56.856 125.769,52.741 C 118.019,44.998 110.267,37.255 102.515,29.511 C 95.594,22.591 88.67,15.675 81.746,8.756 C 75.81,2.825 67.808,-4.529 59.643,3.605 M 2.508,71.685 C -0.724,63.872 7.978,57.977 12.705,53.234 C 20.864,45.05 29.024,36.862 37.183,28.677 C 44.138,21.699 51.094,14.723 58.049,7.745 C 63.373,2.405 69.875,-0.574 76.223,5.769 C 90.646,20.18 105.069,34.591 119.493,49.002 C 123.622,53.125 129.033,57.207 132.46,61.957 C 136.854,66.347 133.986,76.098 127.434,76.098 C 122.514,76.098 117.596,76.098 112.676,76.098 C 108.635,76.098 104.594,76.098 100.551,76.098 C 100.33,76.098 100.449,82.317 100.449,82.796 C 100.449,93.896 100.447,104.997 100.447,116.097 C 100.447,124.929 97.245,130.932 87.482,130.932 C 76.706,130.932 65.928,130.932 55.152,130.932 C 47.152,130.932 33.841,132.614 33.841,120.677 C 33.841,111.536 33.841,102.395 33.841,93.254 C 33.841,88.504 33.841,83.754 33.841,79.004 C 33.841,76.049 34.319,76.098 31.307,76.098 C 24.744,76.098 5.739,79.504 2.508,71.685" />
  </g>
</svg>
