<?xml version="1.0" encoding="UTF-8" standalone="no"?>
<!-- Created with Inkscape (http://www.inkscape.org/) -->
<svg
   xmlns:dc="http://purl.org/dc/elements/1.1/"
   xmlns:cc="http://web.resource.org/cc/"
   xmlns:rdf="http://www.w3.org/1999/02/22-rdf-syntax-ns#"
   xmlns:svg="http://www.w3.org/2000/svg"
   xmlns="http://www.w3.org/2000/svg"
   xmlns:sodipodi="http://sodipodi.sourceforge.net/DTD/sodipodi-0.dtd"
   xmlns:inkscape="http://www.inkscape.org/namespaces/inkscape"
   height="612.00000pt"
   id="svg18453"
   inkscape:version="0.45.1"
   sodipodi:docbase="O:\resources\icons"
   sodipodi:docname="category_cut.svg"
   sodipodi:version="0.32"
   width="792.00000pt"
   inkscape:output_extension="org.inkscape.output.svg.inkscape"
   inkscape:export-filename="O:\resources\icons\category_cut.png"
   inkscape:export-xdpi="90"
   inkscape:export-ydpi="90">
  <metadata
     id="metadata3">
    <rdf:RDF>
      <cc:Work
         rdf:about="">
        <dc:title>Scissors</dc:title>
        <dc:description>Generic scissor outline</dc:description>
        <dc:subject>
          <rdf:Bag>
            <rdf:li />
            <rdf:li>tool</rdf:li>
          </rdf:Bag>
        </dc:subject>
        <dc:publisher>
          <cc:Agent
             rdf:about="http://www.openclipart.org">
            <dc:title>Jon Phillips</dc:title>
          </cc:Agent>
        </dc:publisher>
        <dc:creator>
          <cc:Agent>
            <dc:title>Jon Phillips</dc:title>
          </cc:Agent>
        </dc:creator>
        <dc:rights>
          <cc:Agent>
            <dc:title>Jon Phillips</dc:title>
          </cc:Agent>
        </dc:rights>
        <dc:date />
        <dc:format>image/svg+xml</dc:format>
        <dc:type
           rdf:resource="http://purl.org/dc/dcmitype/StillImage" />
        <cc:license
           rdf:resource="http://web.resource.org/cc/PublicDomain" />
        <dc:language>en</dc:language>
      </cc:Work>
      <cc:License
         rdf:about="http://web.resource.org/cc/PublicDomain">
        <cc:permits
           rdf:resource="http://web.resource.org/cc/Reproduction" />
        <cc:permits
           rdf:resource="http://web.resource.org/cc/Distribution" />
        <cc:permits
           rdf:resource="http://web.resource.org/cc/DerivativeWorks" />
      </cc:License>
    </rdf:RDF>
  </metadata>
  <defs
     id="defs48974" />
  <sodipodi:namedview
     bordercolor="#666666"
     borderopacity="1.0"
     id="base"
     inkscape:cx="475.26707"
     inkscape:cy="250.37448"
     inkscape:pageopacity="0.0"
     inkscape:pageshadow="2"
     inkscape:window-height="739"
     inkscape:window-width="1012"
     inkscape:window-x="0"
     inkscape:window-y="3"
     inkscape:zoom="0.61399264"
     pagecolor="#ffffff" />
  <path
     d="M 468.50603,460.84432 C 482.54322,527.70894 506.67195,561.27617 494.68135,568.74517 C 485.30886,574.58339 482.00198,564.69754 458.40193,581.18615 C 435.74189,597.01796 433.64417,632.27601 449.58043,654.44039 C 463.84865,677.65584 496.50726,690.5899 521.07633,675.57113 C 546.76926,661.95855 556.73803,627.01101 543.09486,601.5157 C 529.49561,570.16539 503.88694,537.19849 508.33475,479.74541 L 511.74895,435.64707 L 466.43344,231.2557 C 459.15448,206.397 442.8383,180.64411 410.3309,174.85595 L 468.50603,460.84432 z M 457.72486,626.28265 C 456.14968,593.40079 494.34319,572.37571 517.29134,593.27069 C 539.55605,611.22369 535.517,654.40226 506.1159,662.57066 C 483.06123,670.98976 458.80325,648.79253 457.72486,626.28265 z "
     id="path48999"
     sodipodi:nodetypes="cccccczcccccccc"
     style="stroke:#000000;stroke-width:7.54062271;marker-start:none;stroke-miterlimit:4;stroke-opacity:1" />
  <path
     d="M 508.90043,414.03252 C 576.80239,421.60196 612.52557,442.40573 618.8119,429.75517 C 623.7257,419.86674 613.56888,417.52183 627.72202,392.45072 C 641.31095,368.37899 676.20614,362.91467 699.79493,376.65514 C 724.26945,388.63487 740.27168,419.90498 727.67463,445.79913 C 716.58484,472.67768 682.75256,485.94721 656.06811,474.80777 C 623.55966,464.27338 588.29194,441.93898 531.52874,451.86838 L 487.95962,459.48957 L 280.1685,433.95432 C 254.7269,429.08926 227.52978,415.31438 218.65537,383.51065 L 458.74062,408.75776 L 508.90043,414.03252 z M 672.54605,387.45891 C 639.66452,389.03965 622.39343,429.07096 645.38999,449.91252 C 665.39225,470.35609 707.98583,462.20065 713.30125,432.15269 C 719.47389,408.39777 695.05584,386.37673 672.54605,387.45891 z "
     id="path49000"
     sodipodi:nodetypes="cccccczccccccccc"
     style="stroke:#000000;stroke-width:7.54062271;marker-start:none;stroke-miterlimit:4;stroke-opacity:1" />
</svg>
